<svg width="40" height="40" viewBox="0 0 40 40" fill="none" xmlns="http://www.w3.org/2000/svg">
<path d="M32.55 13.3333L23.3333 4.11667C23.0991 3.88218 22.7814 3.75029 22.45 3.75H18.3333C17.1177 3.75 15.9519 4.23289 15.0924 5.09243C14.2329 5.95197 13.75 7.11776 13.75 8.33333V10.4167H11.6666C10.4511 10.4167 9.28528 10.8996 8.42574 11.7591C7.5662 12.6186 7.08331 13.7844 7.08331 15V31.6667C7.08331 32.8822 7.5662 34.048 8.42574 34.9076C9.28528 35.7671 10.4511 36.25 11.6666 36.25H23.3333C24.5489 36.25 25.7147 35.7671 26.5742 34.9076C27.4338 34.048 27.9166 32.8822 27.9166 31.6667V29.5833H28.3333C29.5489 29.5833 30.7147 29.1004 31.5742 28.2409C32.4338 27.3814 32.9166 26.2156 32.9166 25V14.1667C32.9035 13.8527 32.7726 13.5551 32.55 13.3333ZM23.75 8.01667L28.65 12.9167H23.75V8.01667ZM25.4166 31.6667C25.4166 32.2192 25.1972 32.7491 24.8065 33.1398C24.4158 33.5305 23.8858 33.75 23.3333 33.75H11.6666C11.1141 33.75 10.5842 33.5305 10.1935 33.1398C9.80281 32.7491 9.58331 32.2192 9.58331 31.6667V15C9.58331 14.4475 9.80281 13.9176 10.1935 13.5269C10.5842 13.1362 11.1141 12.9167 11.6666 12.9167H13.75V25C13.75 26.2156 14.2329 27.3814 15.0924 28.2409C15.9519 29.1004 17.1177 29.5833 18.3333 29.5833H25.4166V31.6667ZM28.3333 27.0833H18.3333C17.7808 27.0833 17.2509 26.8638 16.8602 26.4731C16.4695 26.0824 16.25 25.5525 16.25 25V8.33333C16.25 7.7808 16.4695 7.2509 16.8602 6.86019C17.2509 6.46949 17.7808 6.25 18.3333 6.25H21.25V14.1667C21.2543 14.4968 21.3874 14.8123 21.6209 15.0458C21.8544 15.2793 22.1698 15.4123 22.5 15.4167H30.4166V25C30.4166 25.5525 30.1972 26.0824 29.8065 26.4731C29.4158 26.8638 28.8858 27.0833 28.3333 27.0833Z" fill="black"/>
</svg>
