<svg width="53" height="52" viewBox="0 0 53 52" fill="none" xmlns="http://www.w3.org/2000/svg">
<ellipse cx="26.5617" cy="26" rx="26" ry="25.5" fill="url(#paint0_linear_137_7)"/>
<path d="M34.4546 10.6135C34.2196 10.6955 34.0587 10.8643 33.7297 11.3754C33.2348 12.1445 32.8612 13.0655 32.6707 13.989C32.5396 14.6182 32.5074 14.9606 32.5099 15.79C32.5099 16.5567 32.5297 16.8171 32.641 17.4898C32.6658 17.6416 32.6855 17.7694 32.6806 17.7743C32.6781 17.7767 32.5717 17.7381 32.448 17.6826C31.9334 17.4632 31.3148 17.292 30.6765 17.1956C30.3746 17.1498 30.2262 17.1426 29.526 17.1402C28.7095 17.1402 28.6031 17.1474 27.9549 17.2511C26.4035 17.497 24.5776 18.2058 23.0807 19.1365C21.606 20.0551 20.1908 21.345 19.159 22.7096C17.1945 25.3111 16.4052 28.3056 17.0584 30.6997C17.1426 31.0059 17.2984 31.4375 17.4048 31.6521C17.4444 31.7316 17.4741 31.7991 17.4691 31.8015C17.4667 31.8064 17.3801 31.7991 17.2811 31.7847C16.7046 31.7147 15.6679 31.7147 15.0271 31.7871C13.3224 31.9751 11.9121 32.5248 11.1352 33.3012C10.8952 33.5447 10.8333 33.6652 10.8333 33.9088C10.8333 34.1233 10.8952 34.2801 11.0387 34.4247C11.1228 34.5115 11.3875 34.6562 11.4593 34.6562C11.4766 34.6562 11.5434 34.6827 11.6077 34.714C12.0135 34.9166 12.5331 35.5844 12.6395 36.0353C12.6568 36.1197 12.6914 36.3656 12.7137 36.585C12.7805 37.2769 12.8448 37.5639 13.0057 37.8749C13.2976 38.4463 13.8321 38.8417 14.5496 39.0225C14.7252 39.0659 14.9875 39.1021 15.6654 39.1768C16.1751 39.2347 16.3879 39.3215 16.6106 39.5674C16.6675 39.6325 16.8902 39.9387 17.1079 40.2497C17.5582 40.9031 17.7809 41.1852 17.9269 41.2865C18.2362 41.5059 18.6568 41.4625 18.9265 41.1852C19.1293 40.9803 19.4856 40.4306 19.7429 39.9315C20.1809 39.0828 20.4407 38.1955 20.557 37.1564C20.6287 36.5199 20.5965 35.3313 20.4926 34.6755C20.4778 34.5838 20.4704 34.5043 20.4753 34.4995C20.4803 34.4922 20.6634 34.5477 20.8836 34.62C21.8386 34.9334 22.5066 35.0419 23.4864 35.0419C24.1619 35.0419 24.6889 34.9937 25.3322 34.8708C28.6699 34.2342 32.0027 31.9655 34.0414 28.9421C35.1004 27.3677 35.7239 25.7668 35.9218 24.1152C35.9738 23.6716 35.9738 22.8109 35.9218 22.3962C35.8303 21.6608 35.6497 21.0315 35.3503 20.4095C35.276 20.2576 35.2167 20.1322 35.2167 20.1298C35.2167 20.1298 35.3577 20.1467 35.5334 20.1708C36.6492 20.3203 37.9729 20.2745 39.0517 20.043C40.217 19.7947 41.1647 19.3728 41.8228 18.811C42.0702 18.5988 42.1568 18.4927 42.236 18.3119C42.3003 18.1552 42.3078 18.0057 42.2558 17.8345C42.1791 17.5862 41.9836 17.403 41.6941 17.3186C41.6026 17.2896 41.4616 17.227 41.3849 17.1763C40.989 16.9232 40.5362 16.2963 40.4521 15.8864C40.4323 15.7924 40.3977 15.5392 40.3754 15.3198C40.2838 14.4205 40.1354 14.0251 39.737 13.6153C39.45 13.3211 39.0938 13.1138 38.6657 12.9932C38.3911 12.9161 38.2575 12.8944 37.6785 12.8365C37.1317 12.781 36.9239 12.7425 36.768 12.6653C36.5899 12.5761 36.3795 12.335 36.0084 11.7998C35.6274 11.25 35.328 10.8667 35.1944 10.7558C34.9841 10.5822 34.6996 10.5292 34.4546 10.6135Z" fill="white"/>
<defs>
<linearGradient id="paint0_linear_137_7" x1="6.06171" y1="4.5" x2="41.1194" y2="56.6336" gradientUnits="userSpaceOnUse">
<stop stop-color="#FAE7AA"/>
<stop offset="0.0726448" stop-color="white"/>
<stop offset="0.564293" stop-color="#F2C127"/>
</linearGradient>
</defs>
</svg>
